# xmcd
#
# Track frame offsets:
#	183
#	18593
#	33875
#	46453
#	61800
#	76745
#	92740
#	105520
#	127255
#	141065
#	169050
#	189870
#	203750
#	233310
#	253165
#	281160
#	300170
#	315083
#
# Disc length: 4430 seconds
#
# Revision: 0
# Processed by: cddbd v1.5.1PL0 Copyright (c) Steve Scherf et al.
# Submitted via: dBpowerAMP V4.0
#
DISCID=dd114c12
DTITLE=Dells - On their Corner
DYEAR=1900
DGENRE=Soul
TTITLE0=Oh what a night
TTITLE1=Wear it on our face
TTITLE2=Love is so simple
TTITLE3=I can sing a rainbow
TTITLE4=O O I love you
TTITLE5=There is
TTITLE6=Nadine
TTITLE7=The love we had ( stays on my mind)
TTITLE8=Run for cover
TTITLE9=Stay in my corner
TTITLE10=Give your baby a standing ovation
TTITLE11=Always together
TTITLE12=Open up my heart
TTITLE13=I miss you
TTITLE14=Since I found you
TTITLE15=My pretending days are over
TTITLE16=Learning to love you was easy
TTITLE17=I wish it was me you loved
EXTD=
EXTT0=
EXTT1=
EXTT2=
EXTT3=
EXTT4=
EXTT5=
EXTT6=
EXTT7=
EXTT8=
EXTT9=
EXTT10=
EXTT11=
EXTT12=
EXTT13=
EXTT14=
EXTT15=
EXTT16=
EXTT17=
PLAYORDER=
